<svg xmlns="http://www.w3.org/2000/svg" viewBox="0 0 64 64">
  <rect width="64" height="64" rx="14" fill="#020617"/>

  <!-- candle flame -->
  <path d="M32 10c-2.2 2.6-3.4 4.6-3.4 6.4a3.4 3.4 0 0 0 6.8 0c0-1.8-1.2-3.8-3.4-6.4z" fill="#f59e0b"/>

  <!-- candle -->
  <rect x="29.5" y="18" width="5" height="7" rx="1.2" fill="#fbbf24"/>

  <!-- top cake tier -->
  <path d="M16 32c0-4.4 7.2-8 16-8s16 3.6 16 8v4H16v-4z" fill="#f59e0b"/>

  <!-- top tier icing drips -->
  <path d="M16 33c0 1.6 2 2.4 2 4s-1.4 2.4-1.4 4h30.8c0-1.6-1.4-2.4-1.4-4s2-2.4 2-4H16z" fill="#fcd34d"/>

  <!-- bottom cake tier -->
  <path d="M10 40c0-2.2 1.8-4 4-4h36c2.2 0 4 1.8 4 4v10c0 2.2-1.8 4-4 4H14c-2.2 0-4-1.8-4-4V40z" fill="#d97706"/>

  <!-- bottom tier decorative line -->
  <rect x="10" y="46" width="44" height="3" fill="#fbbf24" opacity="0.85"/>

  <!-- plate -->
  <ellipse cx="32" cy="55" rx="24" ry="3" fill="#1e293b"/>
</svg>
